# xmcd
#
# Track frame offsets: 
#        150
#        23544
#        42173
#        63167
#        79276
#        103795
#        117611
#        148636
#
# Disc length: 2210 seconds
#
# Revision: 0
# Processed by: cddbd v1.5.2PL0 Copyright (c) Steve Scherf et al.
# Submitted via: ExactAudioCopy v1.0b4
#
DISCID=6708a008
DTITLE=Chicago Bob Hess - Long Way From Chicago
DYEAR=2014
DGENRE=Blues
TTITLE0=Sugar Man
TTITLE1=Funk In E
TTITLE2=Graveyard Dust
TTITLE3=Nowhere Train
TTITLE4=Go Away Mr. Blues
TTITLE5=She's Gone
TTITLE6=Long Way From Chicago
TTITLE7=Old Man Santa's Got The Blues
EXTD=
EXTT0=
EXTT1=
EXTT2=
EXTT3=
EXTT4=
EXTT5=
EXTT6=
EXTT7=
PLAYORDER=
